<svg width="256" height="256" viewBox="0 0 256 256" xmlns="http://www.w3.org/2000/svg">
  <!-- Background circle -->
  <circle cx="128" cy="128" r="120" fill="#f8f8f8" stroke="#333" stroke-width="2"/>
  
  <!-- OpenStreetMap Logo (simplified) -->
  <g transform="translate(30, 30) scale(0.6)">
    <path d="M 128 0 C 57.3 0 0 57.3 0 128 s 57.3 128 128 128 s 128 -57.3 128 -128 S 198.7 0 128 0 z" fill="#7EBC6F"/>
    <path d="M 128 20 c 59.6 0 108 48.4 108 108 s -48.4 108 -108 108 S 20 187.6 20 128 S 68.4 20 128 20 z" fill="#F2F2F2"/>
    <path d="M 128 40 c 48.6 0 88 39.4 88 88 s -39.4 88 -88 88 s -88 -39.4 -88 -88 S 79.4 40 128 40 z" fill="#7EBC6F"/>
    <path d="M 128 60 c 37.5 0 68 30.5 68 68 s -30.5 68 -68 68 s -68 -30.5 -68 -68 S 90.5 60 128 60 z" fill="#F2F2F2"/>
    <path d="M 128 80 c 26.5 0 48 21.5 48 48 s -21.5 48 -48 48 s -48 -21.5 -48 -48 s 21.5 -48 48 -48 z" fill="#7EBC6F"/>
  </g>
  
  <!-- Magnifying Glass -->
  <g transform="translate(150, 150) scale(0.5)">
    <!-- Handle -->
    <rect x="100" y="100" width="60" height="20" rx="10" transform="rotate(45, 130, 110)" fill="#333"/>
    <!-- Lens -->
    <circle cx="80" cy="80" r="70" fill="none" stroke="#333" stroke-width="15" fill-opacity="0.1"/>
    
    <!-- Vibe Coding Icons -->
    <g transform="translate(40, 40) scale(0.4)">
      <!-- Curly Braces -->
      <path d="M40 10 L30 20 L40 30 M60 10 L70 20 L60 30" stroke="#333" stroke-width="4" fill="none"/>
      <!-- Code Brackets -->
      <path d="M90 10 L110 30 L90 50 M110 10 L90 30 L110 50" stroke="#333" stroke-width="4" fill="none"/>
      <!-- Greater/Less Than -->
      <path d="M130 30 L150 10 L150 50 L130 30 Z M170 30 L150 10 L150 50 L170 30 Z" fill="#333"/>
      <!-- Slash -->
      <path d="M190 10 L210 50" stroke="#333" stroke-width="4"/>
      <!-- Equal Signs -->
      <path d="M220 25 L240 25 M220 35 L240 35" stroke="#333" stroke-width="4"/>
    </g>
  </g>
</svg>